<svg id="visual" viewBox="0 0 1300 600" width="1300" height="600" xmlns="http://www.w3.org/2000/svg" xmlns:xlink="http://www.w3.org/1999/xlink" version="1.1"><rect x="0" y="0" width="1300" height="600" fill="#486880"></rect><defs><linearGradient id="grad1_0" x1="53.8%" y1="0%" x2="100%" y2="100%"><stop offset="6.666666666666669%" stop-color="#486880" stop-opacity="1"></stop><stop offset="93.33333333333333%" stop-color="#486880" stop-opacity="1"></stop></linearGradient></defs><defs><linearGradient id="grad2_0" x1="0%" y1="0%" x2="46.2%" y2="100%"><stop offset="6.666666666666669%" stop-color="#486880" stop-opacity="1"></stop><stop offset="93.33333333333333%" stop-color="#486880" stop-opacity="1"></stop></linearGradient></defs><g transform="translate(1300, 0)"><path d="M0 300C-32.1 283.9 -64.2 267.8 -106.8 257.8C-149.3 247.7 -202.4 243.8 -212.1 212.1C-221.9 180.5 -188.4 121.1 -195.9 81.1C-203.3 41.2 -251.6 20.6 -300 0L0 0Z" fill="#ffb13b"></path></g><g transform="translate(0, 600)"><path d="M0 -300C44 -301.9 88 -303.9 114.8 -277.2C141.6 -250.5 151.1 -195.1 158.4 -158.4C165.7 -121.7 170.8 -103.7 194 -80.4C217.2 -57.1 258.6 -28.5 300 0L0 0Z" fill="#ffb13b"></path></g></svg>