<svg id="visual" viewBox="0 0 1300 600" width="1300" height="600" xmlns="http://www.w3.org/2000/svg" xmlns:xlink="http://www.w3.org/1999/xlink" version="1.1"><rect x="0" y="0" width="1300" height="600" fill="#809db4"></rect><path d="M0 445L27.2 447.7C54.3 450.3 108.7 455.7 162.8 457.2C217 458.7 271 456.3 325.2 443.5C379.3 430.7 433.7 407.3 487.8 395.3C542 383.3 596 382.7 650.2 398.3C704.3 414 758.7 446 812.8 463.3C867 480.7 921 483.3 975.2 482.7C1029.3 482 1083.7 478 1137.8 464.2C1192 450.3 1246 426.7 1273 414.8L1300 403L1300 601L1273 601C1246 601 1192 601 1137.8 601C1083.7 601 1029.3 601 975.2 601C921 601 867 601 812.8 601C758.7 601 704.3 601 650.2 601C596 601 542 601 487.8 601C433.7 601 379.3 601 325.2 601C271 601 217 601 162.8 601C108.7 601 54.3 601 27.2 601L0 601Z" fill="#fa7268"></path><path d="M0 473L27.2 466C54.3 459 108.7 445 162.8 433.2C217 421.3 271 411.7 325.2 407.2C379.3 402.7 433.7 403.3 487.8 417.3C542 431.3 596 458.7 650.2 456.3C704.3 454 758.7 422 812.8 412.7C867 403.3 921 416.7 975.2 432.2C1029.3 447.7 1083.7 465.3 1137.8 460.2C1192 455 1246 427 1273 413L1300 399L1300 601L1273 601C1246 601 1192 601 1137.8 601C1083.7 601 1029.3 601 975.2 601C921 601 867 601 812.8 601C758.7 601 704.3 601 650.2 601C596 601 542 601 487.8 601C433.7 601 379.3 601 325.2 601C271 601 217 601 162.8 601C108.7 601 54.3 601 27.2 601L0 601Z" fill="#e06368"></path><path d="M0 455L27.2 463C54.3 471 108.7 487 162.8 484C217 481 271 459 325.2 455C379.3 451 433.7 465 487.8 473.8C542 482.7 596 486.3 650.2 484.3C704.3 482.3 758.7 474.7 812.8 469C867 463.3 921 459.7 975.2 452.3C1029.3 445 1083.7 434 1137.8 442C1192 450 1246 477 1273 490.5L1300 504L1300 601L1273 601C1246 601 1192 601 1137.8 601C1083.7 601 1029.3 601 975.2 601C921 601 867 601 812.8 601C758.7 601 704.3 601 650.2 601C596 601 542 601 487.8 601C433.7 601 379.3 601 325.2 601C271 601 217 601 162.8 601C108.7 601 54.3 601 27.2 601L0 601Z" fill="#c65565"></path><path d="M0 461L27.2 473.2C54.3 485.3 108.7 509.7 162.8 514.2C217 518.7 271 503.3 325.2 491C379.3 478.7 433.7 469.3 487.8 473.7C542 478 596 496 650.2 499.5C704.3 503 758.7 492 812.8 496C867 500 921 519 975.2 528.3C1029.3 537.7 1083.7 537.3 1137.8 525.2C1192 513 1246 489 1273 477L1300 465L1300 601L1273 601C1246 601 1192 601 1137.8 601C1083.7 601 1029.3 601 975.2 601C921 601 867 601 812.8 601C758.7 601 704.3 601 650.2 601C596 601 542 601 487.8 601C433.7 601 379.3 601 325.2 601C271 601 217 601 162.8 601C108.7 601 54.3 601 27.2 601L0 601Z" fill="#aa4960"></path><path d="M0 526L27.2 521.7C54.3 517.3 108.7 508.7 162.8 505.2C217 501.7 271 503.3 325.2 504.7C379.3 506 433.7 507 487.8 511.7C542 516.3 596 524.7 650.2 527.3C704.3 530 758.7 527 812.8 524.5C867 522 921 520 975.2 517.7C1029.3 515.3 1083.7 512.7 1137.8 512.7C1192 512.7 1246 515.3 1273 516.7L1300 518L1300 601L1273 601C1246 601 1192 601 1137.8 601C1083.7 601 1029.3 601 975.2 601C921 601 867 601 812.8 601C758.7 601 704.3 601 650.2 601C596 601 542 601 487.8 601C433.7 601 379.3 601 325.2 601C271 601 217 601 162.8 601C108.7 601 54.3 601 27.2 601L0 601Z" fill="#8e3f59"></path><path d="M0 580L27.2 573C54.3 566 108.7 552 162.8 548.7C217 545.3 271 552.7 325.2 556.7C379.3 560.7 433.7 561.3 487.8 557.3C542 553.3 596 544.7 650.2 546.5C704.3 548.3 758.7 560.7 812.8 561.3C867 562 921 551 975.2 547.8C1029.3 544.7 1083.7 549.3 1137.8 550.5C1192 551.7 1246 549.3 1273 548.2L1300 547L1300 601L1273 601C1246 601 1192 601 1137.8 601C1083.7 601 1029.3 601 975.2 601C921 601 867 601 812.8 601C758.7 601 704.3 601 650.2 601C596 601 542 601 487.8 601C433.7 601 379.3 601 325.2 601C271 601 217 601 162.8 601C108.7 601 54.3 601 27.2 601L0 601Z" fill="#73354f"></path></svg>