<svg id="visual" viewBox="0 0 900 600" width="900" height="600" xmlns="http://www.w3.org/2000/svg" xmlns:xlink="http://www.w3.org/1999/xlink" version="1.1"><path d="M0 103L13.7 112C27.3 121 54.7 139 82 161C109.3 183 136.7 209 163.8 225C191 241 218 247 245.2 230C272.3 213 299.7 173 327 152C354.3 131 381.7 129 409 138C436.3 147 463.7 167 491 162C518.3 157 545.7 127 573 118C600.3 109 627.7 121 654.8 125C682 129 709 125 736.2 123C763.3 121 790.7 121 818 142C845.3 163 872.7 205 886.3 226L900 247L900 0L886.3 0C872.7 0 845.3 0 818 0C790.7 0 763.3 0 736.2 0C709 0 682 0 654.8 0C627.7 0 600.3 0 573 0C545.7 0 518.3 0 491 0C463.7 0 436.3 0 409 0C381.7 0 354.3 0 327 0C299.7 0 272.3 0 245.2 0C218 0 191 0 163.8 0C136.7 0 109.3 0 82 0C54.7 0 27.3 0 13.7 0L0 0Z" fill="#deb277"></path><path d="M0 247L13.7 242C27.3 237 54.7 227 82 237C109.3 247 136.7 277 163.8 297C191 317 218 327 245.2 316C272.3 305 299.7 273 327 257C354.3 241 381.7 241 409 253C436.3 265 463.7 289 491 284C518.3 279 545.7 245 573 231C600.3 217 627.7 223 654.8 231C682 239 709 249 736.2 243C763.3 237 790.7 215 818 232C845.3 249 872.7 305 886.3 333L900 361L900 245L886.3 224C872.7 203 845.3 161 818 140C790.7 119 763.3 119 736.2 121C709 123 682 127 654.8 123C627.7 119 600.3 107 573 116C545.7 125 518.3 155 491 160C463.7 165 436.3 145 409 136C381.7 127 354.3 129 327 150C299.7 171 272.3 211 245.2 228C218 245 191 239 163.8 223C136.7 207 109.3 181 82 159C54.7 137 27.3 119 13.7 110L0 101Z" fill="#d4a15a"></path><path d="M0 493L13.7 481C27.3 469 54.7 445 82 447C109.3 449 136.7 477 163.8 484C191 491 218 477 245.2 477C272.3 477 299.7 491 327 491C354.3 491 381.7 477 409 464C436.3 451 463.7 439 491 439C518.3 439 545.7 451 573 467C600.3 483 627.7 503 654.8 500C682 497 709 471 736.2 459C763.3 447 790.7 449 818 448C845.3 447 872.7 443 886.3 441L900 439L900 359L886.3 331C872.7 303 845.3 247 818 230C790.7 213 763.3 235 736.2 241C709 247 682 237 654.8 229C627.7 221 600.3 215 573 229C545.7 243 518.3 277 491 282C463.7 287 436.3 263 409 251C381.7 239 354.3 239 327 255C299.7 271 272.3 303 245.2 314C218 325 191 315 163.8 295C136.7 275 109.3 245 82 235C54.7 225 27.3 235 13.7 240L0 245Z" fill="#ca913c"></path><path d="M0 565L13.7 556C27.3 547 54.7 529 82 529C109.3 529 136.7 547 163.8 545C191 543 218 521 245.2 521C272.3 521 299.7 543 327 547C354.3 551 381.7 537 409 535C436.3 533 463.7 543 491 545C518.3 547 545.7 541 573 543C600.3 545 627.7 555 654.8 550C682 545 709 525 736.2 518C763.3 511 790.7 517 818 521C845.3 525 872.7 527 886.3 528L900 529L900 437L886.3 439C872.7 441 845.3 445 818 446C790.7 447 763.3 445 736.2 457C709 469 682 495 654.8 498C627.7 501 600.3 481 573 465C545.7 449 518.3 437 491 437C463.7 437 436.3 449 409 462C381.7 475 354.3 489 327 489C299.7 489 272.3 475 245.2 475C218 475 191 489 163.8 482C136.7 475 109.3 447 82 445C54.7 443 27.3 467 13.7 479L0 491Z" fill="#af7d34"></path><path d="M0 601L13.7 601C27.3 601 54.7 601 82 601C109.3 601 136.7 601 163.8 601C191 601 218 601 245.2 601C272.3 601 299.7 601 327 601C354.3 601 381.7 601 409 601C436.3 601 463.7 601 491 601C518.3 601 545.7 601 573 601C600.3 601 627.7 601 654.8 601C682 601 709 601 736.2 601C763.3 601 790.7 601 818 601C845.3 601 872.7 601 886.3 601L900 601L900 527L886.3 526C872.7 525 845.3 523 818 519C790.7 515 763.3 509 736.2 516C709 523 682 543 654.8 548C627.7 553 600.3 543 573 541C545.7 539 518.3 545 491 543C463.7 541 436.3 531 409 533C381.7 535 354.3 549 327 545C299.7 541 272.3 519 245.2 519C218 519 191 541 163.8 543C136.7 545 109.3 527 82 527C54.7 527 27.3 545 13.7 554L0 563Z" fill="#946a2c"></path></svg>