<svg id="visual" viewBox="0 0 900 600" width="900" height="600" xmlns="http://www.w3.org/2000/svg" xmlns:xlink="http://www.w3.org/1999/xlink" version="1.1"><rect x="0" y="0" width="900" height="600" fill="#001220"></rect><defs><linearGradient id="grad1_0" x1="33.3%" y1="0%" x2="100%" y2="100%"><stop offset="20%" stop-color="#001220" stop-opacity="1"></stop><stop offset="80%" stop-color="#001220" stop-opacity="1"></stop></linearGradient></defs><defs><linearGradient id="grad2_0" x1="0%" y1="0%" x2="66.7%" y2="100%"><stop offset="20%" stop-color="#001220" stop-opacity="1"></stop><stop offset="80%" stop-color="#001220" stop-opacity="1"></stop></linearGradient></defs><g transform="translate(900, 0)"><path d="M0 270.4C-35.7 267.6 -71.4 264.7 -103.5 249.8C-135.6 235 -164.1 208.1 -178.2 178.2C-192.3 148.2 -192.1 115.2 -205.1 85C-218.1 54.7 -244.2 27.4 -270.4 0L0 0Z" fill="#FBAE3C"></path></g><g transform="translate(0, 600)"><path d="M0 -270.4C24.3 -240.7 48.6 -210.9 83.8 -202.3C119 -193.7 165 -206.3 191.2 -191.2C217.4 -176.1 223.8 -133.3 233.7 -96.8C243.6 -60.3 257 -30.2 270.4 0L0 0Z" fill="#FBAE3C"></path></g></svg>