<svg id="visual" viewBox="0 0 900 600" width="900" height="600" xmlns="http://www.w3.org/2000/svg" xmlns:xlink="http://www.w3.org/1999/xlink" version="1.1"><rect x="0" y="0" width="900" height="600" fill="#001220"></rect><defs><linearGradient id="grad1_0" x1="33.3%" y1="0%" x2="100%" y2="100%"><stop offset="20%" stop-color="#001220" stop-opacity="1"></stop><stop offset="80%" stop-color="#001220" stop-opacity="1"></stop></linearGradient></defs><defs><linearGradient id="grad2_0" x1="0%" y1="0%" x2="66.7%" y2="100%"><stop offset="20%" stop-color="#001220" stop-opacity="1"></stop><stop offset="80%" stop-color="#001220" stop-opacity="1"></stop></linearGradient></defs><g transform="translate(900, 0)"><path d="M0 54.1C-4.5 47.7 -9 41.2 -16.5 39.7C-23.9 38.2 -34.2 41.6 -38.2 38.2C-42.3 34.9 -40 24.7 -41.6 17.2C-43.2 9.7 -48.6 4.9 -54.1 0L0 0Z" fill="#FBAE3C"></path></g><g transform="translate(0, 600)"><path d="M0 -54.1C5.1 -48.7 10.1 -43.3 17.2 -41.6C24.3 -39.8 33.5 -41.7 38.2 -38.2C43 -34.8 43.4 -26 45.3 -18.8C47.2 -11.5 50.6 -5.7 54.1 0L0 0Z" fill="#FBAE3C"></path></g></svg>