<svg id="visual" viewBox="0 0 900 600" width="900" height="600" xmlns="http://www.w3.org/2000/svg" xmlns:xlink="http://www.w3.org/1999/xlink" version="1.1"><rect x="0" y="0" width="900" height="600" fill="#001220"></rect><path d="M0 429L21.5 431.3C43 433.7 86 438.3 128.8 441.7C171.7 445 214.3 447 257.2 434.2C300 421.3 343 393.7 385.8 390.7C428.7 387.7 471.3 409.3 514.2 418.7C557 428 600 425 642.8 412.3C685.7 399.7 728.3 377.3 771.2 367.2C814 357 857 359 878.5 360L900 361L900 601L878.5 601C857 601 814 601 771.2 601C728.3 601 685.7 601 642.8 601C600 601 557 601 514.2 601C471.3 601 428.7 601 385.8 601C343 601 300 601 257.2 601C214.3 601 171.7 601 128.8 601C86 601 43 601 21.5 601L0 601Z" fill="#fa7268"></path><path d="M0 437L21.5 438.3C43 439.7 86 442.3 128.8 447.8C171.7 453.3 214.3 461.7 257.2 467.3C300 473 343 476 385.8 475.5C428.7 475 471.3 471 514.2 460.5C557 450 600 433 642.8 435C685.7 437 728.3 458 771.2 462.8C814 467.7 857 456.3 878.5 450.7L900 445L900 601L878.5 601C857 601 814 601 771.2 601C728.3 601 685.7 601 642.8 601C600 601 557 601 514.2 601C471.3 601 428.7 601 385.8 601C343 601 300 601 257.2 601C214.3 601 171.7 601 128.8 601C86 601 43 601 21.5 601L0 601Z" fill="#ef5f67"></path><path d="M0 451L21.5 455.5C43 460 86 469 128.8 469.3C171.7 469.7 214.3 461.3 257.2 462.5C300 463.7 343 474.3 385.8 479.3C428.7 484.3 471.3 483.7 514.2 486.7C557 489.7 600 496.3 642.8 496C685.7 495.7 728.3 488.3 771.2 477.7C814 467 857 453 878.5 446L900 439L900 601L878.5 601C857 601 814 601 771.2 601C728.3 601 685.7 601 642.8 601C600 601 557 601 514.2 601C471.3 601 428.7 601 385.8 601C343 601 300 601 257.2 601C214.3 601 171.7 601 128.8 601C86 601 43 601 21.5 601L0 601Z" fill="#e34c67"></path><path d="M0 492L21.5 497.5C43 503 86 514 128.8 512.2C171.7 510.3 214.3 495.7 257.2 492.8C300 490 343 499 385.8 501.5C428.7 504 471.3 500 514.2 496.7C557 493.3 600 490.7 642.8 489.5C685.7 488.3 728.3 488.7 771.2 489.3C814 490 857 491 878.5 491.5L900 492L900 601L878.5 601C857 601 814 601 771.2 601C728.3 601 685.7 601 642.8 601C600 601 557 601 514.2 601C471.3 601 428.7 601 385.8 601C343 601 300 601 257.2 601C214.3 601 171.7 601 128.8 601C86 601 43 601 21.5 601L0 601Z" fill="#d53867"></path><path d="M0 559L21.5 558.7C43 558.3 86 557.7 128.8 554C171.7 550.3 214.3 543.7 257.2 546.2C300 548.7 343 560.3 385.8 558.7C428.7 557 471.3 542 514.2 539C557 536 600 545 642.8 546C685.7 547 728.3 540 771.2 541.7C814 543.3 857 553.7 878.5 558.8L900 564L900 601L878.5 601C857 601 814 601 771.2 601C728.3 601 685.7 601 642.8 601C600 601 557 601 514.2 601C471.3 601 428.7 601 385.8 601C343 601 300 601 257.2 601C214.3 601 171.7 601 128.8 601C86 601 43 601 21.5 601L0 601Z" fill="#c62368"></path></svg>