<svg id="visual" viewBox="0 0 1300 600" width="1300" height="600" xmlns="http://www.w3.org/2000/svg" xmlns:xlink="http://www.w3.org/1999/xlink" version="1.1"><rect x="0" y="0" width="1300" height="600" fill="#001220"></rect><defs><linearGradient id="grad1_0" x1="53.8%" y1="0%" x2="100%" y2="100%"><stop offset="6.666666666666669%" stop-color="#001220" stop-opacity="1"></stop><stop offset="93.33333333333333%" stop-color="#001220" stop-opacity="1"></stop></linearGradient></defs><defs><linearGradient id="grad2_0" x1="0%" y1="0%" x2="46.2%" y2="100%"><stop offset="6.666666666666669%" stop-color="#001220" stop-opacity="1"></stop><stop offset="93.33333333333333%" stop-color="#001220" stop-opacity="1"></stop></linearGradient></defs><g transform="translate(1300, 0)"><path d="M0 300C-26.6 268.9 -53.2 237.8 -94.9 229.1C-136.6 220.4 -193.4 234.1 -212.1 212.1C-230.9 190.1 -211.6 132.4 -219.9 91.1C-228.2 49.8 -264.1 24.9 -300 0L0 0Z" fill="#FBAE3C"></path></g><g transform="translate(0, 600)"><path d="M0 -300C34.1 -284.3 68.2 -268.6 106.4 -256.8C144.6 -245 186.8 -237.1 212.1 -212.1C237.5 -187.1 245.9 -145 257.8 -106.8C269.6 -68.6 284.8 -34.3 300 0L0 0Z" fill="#FBAE3C"></path></g></svg>